Coordinates
version=1
nRows=10
nColumns=40
inDegrees=yes

Units are S.I. units (second, meters, Newtons, ...)
Angles are in degrees.

endheader
time	pelvis_tilt	pelvis_list	pelvis_rotation	pelvis_tx	pelvis_ty	pelvis_tz	hip_flexion_r	hip_adduction_r	hip_rotation_r	knee_angle_r	knee_angle_r_beta	ankle_angle_r	subtalar_angle_r	mtp_angle_r	hip_flexion_l	hip_adduction_l	hip_rotation_l	knee_angle_l	knee_angle_l_beta	ankle_angle_l	subtalar_angle_l	mtp_angle_l	lumbar_extension	lumbar_bending	lumbar_rotation	arm_flex_r	arm_add_r	arm_rot_r	elbow_flex_r	pro_sup_r	wrist_flex_r	wrist_dev_r	arm_flex_l	arm_add_l	arm_rot_l	elbow_flex_l	pro_sup_l	wrist_flex_l	wrist_dev_l
     17.34000000	     -2.38759559	     -5.45557047	      2.84345439	      1.08151550	      0.93013073	      0.48420034	     11.59020774	      3.18398729	    -13.16453369	     18.23617417	     18.23617417	     10.96968362	     -1.41552536	     -3.18154957	     30.55745143	    -12.79989907	      2.22141524	     59.97891292	     59.97891292	      7.83885801	    -18.11660308	     10.87245357	    -11.27224074	      4.46900850	      1.28570271	     14.03629906	    -21.97392651	      0.60709264	     68.03778201	     45.01083425	      0.00000000	      0.00000000	      7.32866966	    -10.61087795	    -13.45797050	     39.15474012	     45.00358485	      0.00000000	      0.00000000
     17.35335714	     -2.65215358	     -5.33262335	      3.32798831	      1.07963559	      0.93030299	      0.48459909	     11.36927925	      3.12483485	    -13.37901613	     17.80815546	     17.80815546	     11.06065793	     -1.59472271	     -3.12647015	     31.84343844	    -12.72444663	      1.63852070	     57.18508057	     57.18508057	      8.29414306	    -18.40476200	     11.10553715	    -11.18300021	      4.22871482	      1.37547359	     15.68965994	    -22.12628857	      0.41627905	     69.16724411	     44.98905689	      0.00000000	      0.00000000	      7.12163961	    -10.47188003	    -13.39512545	     38.81692109	     45.00080719	      0.00000000	      0.00000000
     17.36671429	     -2.68265466	     -5.23632836	      3.92159054	      1.07797239	      0.93079247	      0.48485905	     10.79939332	      3.13675895	    -13.60503454	     17.21150951	     17.21150951	     11.09679723	     -1.90037603	     -3.10071826	     32.58718229	    -12.50385993	      1.19078355	     53.94619290	     53.94619290	      8.67605198	    -18.66968457	     11.40788146	    -11.38517094	      4.12314429	      0.66756123	     17.36137894	    -21.78316320	      0.60545088	     72.06986697	     44.89952838	      0.00000000	      0.00000000	      6.70086595	    -10.74330176	    -13.44023009	     37.67630680	     45.02640542	      0.00000000	      0.00000000
     17.38007143	     -2.86028279	     -5.07177389	      4.42991597	      1.07624101	      0.93102666	      0.48502158	     10.48289821	      3.03307222	    -13.76716463	     16.79987263	     16.79987263	     11.19742413	     -2.14387752	     -3.13548075	     33.24230806	    -12.09899926	      0.72208929	     50.44245422	     50.44245422	      8.98489035	    -18.72505745	     11.77083798	    -11.41209044	      3.88513792	      0.63533996	     18.83588572	    -21.94070251	      0.62491360	     74.01435412	     44.84606081	      0.00000000	      0.00000000	      6.53897578	    -10.70108627	    -13.47080179	     37.03466804	     45.04477530	      0.00000000	      0.00000000
     17.39342857	     -3.07700911	     -4.94940608	      4.91912497	      1.07450500	      0.93107603	      0.48498409	     10.23731189	      2.94464852	    -14.00028599	     16.42881167	     16.42881167	     11.28319919	     -2.34778282	     -3.17686913	     33.79277266	    -11.59002871	      0.41530798	     46.84401990	     46.84401990	      9.26137325	    -18.64995658	     12.13954548	    -11.39865936	      3.72187983	      0.60432716	     20.38192599	    -22.09667032	      0.55713561	     75.80362924	     44.80008992	      0.00000000	      0.00000000	      6.37518496	    -10.60245560	    -13.48935237	     36.43073290	     45.05672286	      0.00000000	      0.00000000
     17.40678571	     -3.23701447	     -4.87301639	      5.42745320	      1.07291066	      0.93110589	      0.48474995	      9.88755062	      2.89267410	    -14.35481919	     15.97969292	     15.97969292	     11.28373799	     -2.39498357	     -3.51592009	     34.12278083	    -10.99345313	      0.33281227	     43.15700900	     43.15700900	      9.33247233	    -18.46609985	     12.02199136	    -11.49417203	      3.67642003	      0.59859078	     21.38468473	    -22.47626843	      0.81376808	     79.42948295	     44.69536784	      0.00000000	      0.00000000	      6.59014400	    -10.50511369	    -13.74481220	     34.82188800	     45.13915406	      0.00000000	      0.00000000
     17.42014286	     -3.44052269	     -4.70823758	      5.86706026	      1.07128391	      0.93109016	      0.48428774	      9.67394015	      2.71707438	    -14.55902540	     15.71320542	     15.71320542	     11.38257612	     -2.56197667	     -3.57653146	     34.36053466	    -10.20101631	      0.47314236	     39.52759313	     39.52759313	      9.48220235	    -17.96520736	     12.29488345	    -11.48775437	      3.48303015	      0.69871053	     22.83277324	    -22.56965937	      0.56206729	     80.66567500	     44.67408838	      0.00000000	      0.00000000	      6.49200910	    -10.33932860	    -13.75153609	     34.36989053	     45.14895549	      0.00000000	      0.00000000
     17.43350000	     -3.66204971	     -4.75102038	      6.33210517	      1.06971270	      0.93076808	      0.48370873	      9.53608757	      2.73789123	    -14.87419771	     15.52728238	     15.52728238	     11.53437144	     -2.68655667	     -3.66732641	     34.71163241	     -9.57314686	      0.90775539	     36.23858883	     36.23858883	      9.69638387	    -17.02671121	     12.48155957	    -11.37424194	      3.57150448	      0.84420403	     24.26328474	    -22.61335241	      0.35859828	     81.78010842	     44.65333094	      0.00000000	      0.00000000	      6.34017514	    -10.19823123	    -13.74765262	     33.99022665	     45.15243071	      0.00000000	      0.00000000
     17.44685714	     -3.71748898	     -4.49214785	      6.69789174	      1.06841020	      0.93100659	      0.48294924	      9.03847762	      2.46399013	    -15.16843214	     15.10208126	     15.10208126	     11.62669147	     -2.50676452	     -3.82179988	     34.51263498	     -8.67905662	      1.26805863	     32.79700222	     32.79700222	      9.75155677	    -16.07075865	     12.32211294	    -11.59367335	      3.27584617	      0.48093039	     25.63653601	    -22.07236317	      0.33714411	     84.04229416	     44.59396048	      0.00000000	      0.00000000	      6.15039694	    -10.30433292	    -13.81663630	     32.95603701	     45.17686116	      0.00000000	      0.00000000
     17.46021429	     -3.86489256	     -4.51239165	      7.04760604	      1.06714192	      0.93071081	      0.48208839	      8.71972878	      2.42630211	    -15.71452760	     14.76968508	     14.76968508	     11.61443425	     -2.05597023	     -4.54718176	     34.55234043	     -8.11259576	      1.78687734	     29.79047836	     29.79047836	      9.12242990	    -14.87995367	     10.11367825	    -11.62225358	      3.36446037	      1.20183461	     26.09980128	    -22.60662524	     -0.12341744	     87.08036623	     44.56375702	      0.00000000	      0.00000000	      7.12174639	     -9.92136957	    -14.35771939	     30.60541743	     45.36408564	      0.00000000	      0.00000000
